<svg xmlns="http://www.w3.org/2000/svg" width="1200" height="630" viewBox="0 0 1200 630" fill="none">
  <rect width="1200" height="630" fill="#143c31"/>
  <circle cx="1090" cy="95" r="330" stroke="#D9F37A" stroke-opacity=".14"/>
  <circle cx="1090" cy="95" r="260" stroke="#D9F37A" stroke-opacity=".11"/>
  <circle cx="1090" cy="95" r="190" stroke="#D9F37A" stroke-opacity=".08"/>
  <rect x="87" y="83" width="54" height="54" rx="16" fill="#D9F37A"/>
  <path d="M102 98h25v6h-19v7h16v6h-16v7h19v6h-25V98Z" fill="#143C31"/>
  <text x="158" y="122" fill="#FFFFFF" font-family="Arial,Helvetica,sans-serif" font-size="34" font-weight="700" letter-spacing="-1.7">FinClaro</text>
  <rect x="88" y="205" width="350" height="39" rx="19.5" fill="#FFFFFF" fill-opacity=".08" stroke="#D9F37A" stroke-opacity=".35"/>
  <circle cx="108" cy="224" r="5" fill="#D9F37A"/>
  <text x="124" y="229" fill="#E2F0C0" font-family="Arial,Helvetica,sans-serif" font-size="14" font-weight="700" letter-spacing="1.3">ASISTENTE PERSONAL · EN DESARROLLO</text>
  <text x="84" y="340" fill="#FFFFFF" font-family="Arial,Helvetica,sans-serif" font-size="82" font-weight="700" letter-spacing="-5">Tu día, claro.</text>
  <text x="84" y="432" fill="#D9F37A" font-family="Arial,Helvetica,sans-serif" font-size="70" font-weight="700" letter-spacing="-4">Y lo importante, a tiempo.</text>
  <text x="88" y="505" fill="#D3DFD8" font-family="Arial,Helvetica,sans-serif" font-size="25">Organiza citas, tareas y recordatorios desde WhatsApp.</text>
  <rect x="815" y="448" width="287" height="106" rx="16" fill="#FFFFFF" fill-opacity=".08" stroke="#FFFFFF" stroke-opacity=".13"/>
  <rect x="839" y="471" width="170" height="30" rx="12" fill="#D9F37A"/>
  <rect x="897" y="512" width="179" height="24" rx="11" fill="#FFFFFF" fill-opacity=".12"/>
  <circle cx="1049" cy="469" r="6" fill="#CBE693"/>
</svg>
